<mxfile host="app.diagrams.net" agent="Mozilla/5.0 (Macintosh; Intel Mac OS X 10_15_7) AppleWebKit/537.36 (KHTML, like Gecko) Chrome/134.0.0.0 Safari/537.36" version="26.2.14">
  <diagram name="Seite-1" id="3GpUqCnEEvWG70pJ8ykI">
    <mxGraphModel dx="3121" dy="1231" grid="1" gridSize="10" guides="1" tooltips="1" connect="1" arrows="1" fold="1" page="1" pageScale="1" pageWidth="827" pageHeight="1169" math="0" shadow="0">
      <root>
        <mxCell id="0" />
        <mxCell id="1" parent="0" />
        <mxCell id="-eBx2iF_R8cHxZ0F60As-2" value="IDRISS Fact Checker Engine" style="text;html=1;align=center;verticalAlign=middle;whiteSpace=wrap;rounded=0;" vertex="1" parent="1">
          <mxGeometry x="100" y="10" width="200" height="30" as="geometry" />
        </mxCell>
        <mxCell id="-eBx2iF_R8cHxZ0F60As-3" value="" style="rounded=0;whiteSpace=wrap;html=1;" vertex="1" parent="1">
          <mxGeometry x="100" y="60" width="190" height="120" as="geometry" />
        </mxCell>
        <mxCell id="-eBx2iF_R8cHxZ0F60As-4" value="&lt;h1 style=&quot;margin-top: 0px;&quot;&gt;Asserter&lt;/h1&gt;&lt;p&gt;Posts bonded data assertions to the Optimistic Source Engine (OSE)&lt;/p&gt;" style="text;html=1;whiteSpace=wrap;overflow=hidden;rounded=0;" vertex="1" parent="1">
          <mxGeometry x="110" y="65" width="160" height="100" as="geometry" />
        </mxCell>
        <mxCell id="-eBx2iF_R8cHxZ0F60As-5" value="" style="rounded=0;whiteSpace=wrap;html=1;" vertex="1" parent="1">
          <mxGeometry x="100" y="200" width="190" height="120" as="geometry" />
        </mxCell>
        <mxCell id="-eBx2iF_R8cHxZ0F60As-6" value="&lt;h1 style=&quot;margin-top: 0px;&quot;&gt;Disputer&lt;/h1&gt;&lt;p&gt;Verifies asserted data points posted to the OSE&lt;/p&gt;" style="text;html=1;whiteSpace=wrap;overflow=hidden;rounded=0;" vertex="1" parent="1">
          <mxGeometry x="110" y="205" width="160" height="100" as="geometry" />
        </mxCell>
        <mxCell id="-eBx2iF_R8cHxZ0F60As-7" value="" style="rounded=0;whiteSpace=wrap;html=1;" vertex="1" parent="1">
          <mxGeometry x="100" y="340" width="190" height="120" as="geometry" />
        </mxCell>
        <mxCell id="-eBx2iF_R8cHxZ0F60As-8" value="&lt;h1 style=&quot;margin-top: 0px;&quot;&gt;DVM&lt;/h1&gt;&lt;p&gt;Data Verification Mechanism&lt;/p&gt;" style="text;html=1;whiteSpace=wrap;overflow=hidden;rounded=0;" vertex="1" parent="1">
          <mxGeometry x="110" y="345" width="160" height="100" as="geometry" />
        </mxCell>
        <mxCell id="-eBx2iF_R8cHxZ0F60As-9" value="" style="rounded=0;whiteSpace=wrap;html=1;" vertex="1" parent="1">
          <mxGeometry x="100" y="480" width="190" height="120" as="geometry" />
        </mxCell>
        <mxCell id="-eBx2iF_R8cHxZ0F60As-10" value="&lt;h1 style=&quot;margin-top: 0px;&quot;&gt;Voter&lt;/h1&gt;&lt;p&gt;Votes on disputes with staked UMA tokens&lt;/p&gt;" style="text;html=1;whiteSpace=wrap;overflow=hidden;rounded=0;" vertex="1" parent="1">
          <mxGeometry x="110" y="485" width="160" height="100" as="geometry" />
        </mxCell>
        <mxCell id="-eBx2iF_R8cHxZ0F60As-11" value="UMA" style="rounded=0;whiteSpace=wrap;html=1;" vertex="1" parent="1">
          <mxGeometry x="330" y="200" width="120" height="400" as="geometry" />
        </mxCell>
        <mxCell id="-eBx2iF_R8cHxZ0F60As-12" value="" style="endArrow=none;html=1;rounded=0;" edge="1" parent="1">
          <mxGeometry width="50" height="50" relative="1" as="geometry">
            <mxPoint x="520" y="120" as="sourcePoint" />
            <mxPoint x="292" y="120" as="targetPoint" />
          </mxGeometry>
        </mxCell>
        <mxCell id="-eBx2iF_R8cHxZ0F60As-13" value="" style="endArrow=none;html=1;rounded=0;entryX=0.5;entryY=0;entryDx=0;entryDy=0;" edge="1" parent="1" target="-eBx2iF_R8cHxZ0F60As-11">
          <mxGeometry width="50" height="50" relative="1" as="geometry">
            <mxPoint x="390" y="120" as="sourcePoint" />
            <mxPoint x="460" y="320" as="targetPoint" />
          </mxGeometry>
        </mxCell>
        <mxCell id="-eBx2iF_R8cHxZ0F60As-14" value="Challenge period" style="text;html=1;align=center;verticalAlign=middle;whiteSpace=wrap;rounded=0;" vertex="1" parent="1">
          <mxGeometry x="335" y="90" width="110" height="30" as="geometry" />
        </mxCell>
        <mxCell id="-eBx2iF_R8cHxZ0F60As-15" value="Dispute" style="rounded=1;whiteSpace=wrap;html=1;" vertex="1" parent="1">
          <mxGeometry x="345" y="140" width="90" height="30" as="geometry" />
        </mxCell>
        <mxCell id="-eBx2iF_R8cHxZ0F60As-16" value="Data assertion is optimistically approved" style="rounded=0;whiteSpace=wrap;html=1;" vertex="1" parent="1">
          <mxGeometry x="520" y="80" width="120" height="80" as="geometry" />
        </mxCell>
        <mxCell id="-eBx2iF_R8cHxZ0F60As-18" value="Probability Markets" style="text;html=1;align=center;verticalAlign=middle;whiteSpace=wrap;rounded=0;" vertex="1" parent="1">
          <mxGeometry x="100" y="660" width="200" height="30" as="geometry" />
        </mxCell>
        <mxCell id="-eBx2iF_R8cHxZ0F60As-19" value="" style="rounded=0;whiteSpace=wrap;html=1;" vertex="1" parent="1">
          <mxGeometry x="105" y="890" width="190" height="120" as="geometry" />
        </mxCell>
        <mxCell id="-eBx2iF_R8cHxZ0F60As-20" value="&lt;h1 style=&quot;margin-top: 0px;&quot;&gt;&lt;span style=&quot;background-color: transparent; color: light-dark(rgb(0, 0, 0), rgb(255, 255, 255));&quot;&gt;Assertion 1&lt;/span&gt;&lt;/h1&gt;&lt;h1 style=&quot;margin-top: 0px;&quot;&gt;&lt;span style=&quot;background-color: transparent; color: light-dark(rgb(0, 0, 0), rgb(255, 255, 255)); font-size: 12px; font-weight: normal;&quot;&gt;Some data source (API/reasoning/media)&lt;/span&gt;&lt;/h1&gt;" style="text;html=1;whiteSpace=wrap;overflow=hidden;rounded=0;" vertex="1" parent="1">
          <mxGeometry x="115" y="890" width="170" height="115" as="geometry" />
        </mxCell>
        <mxCell id="-eBx2iF_R8cHxZ0F60As-21" value="" style="rounded=0;whiteSpace=wrap;html=1;" vertex="1" parent="1">
          <mxGeometry x="-145" y="1330" width="190" height="120" as="geometry" />
        </mxCell>
        <mxCell id="-eBx2iF_R8cHxZ0F60As-22" value="&lt;h1 style=&quot;margin-top: 0px;&quot;&gt;Voter&lt;/h1&gt;&lt;p&gt;Estimates a likelihood of an event&#39;s truthfulness based on assertions&lt;/p&gt;" style="text;html=1;whiteSpace=wrap;overflow=hidden;rounded=0;" vertex="1" parent="1">
          <mxGeometry x="-135" y="1335" width="160" height="100" as="geometry" />
        </mxCell>
        <mxCell id="-eBx2iF_R8cHxZ0F60As-23" value="" style="rounded=0;whiteSpace=wrap;html=1;" vertex="1" parent="1">
          <mxGeometry x="324" y="890" width="190" height="120" as="geometry" />
        </mxCell>
        <mxCell id="-eBx2iF_R8cHxZ0F60As-25" value="" style="rounded=0;whiteSpace=wrap;html=1;" vertex="1" parent="1">
          <mxGeometry x="825" y="890" width="190" height="120" as="geometry" />
        </mxCell>
        <mxCell id="-eBx2iF_R8cHxZ0F60As-27" value="" style="endArrow=none;html=1;rounded=0;exitX=1;exitY=0.5;exitDx=0;exitDy=0;entryX=0;entryY=0.5;entryDx=0;entryDy=0;" edge="1" parent="1" source="-eBx2iF_R8cHxZ0F60As-19" target="-eBx2iF_R8cHxZ0F60As-23">
          <mxGeometry width="50" height="50" relative="1" as="geometry">
            <mxPoint x="585" y="780" as="sourcePoint" />
            <mxPoint x="635" y="730" as="targetPoint" />
          </mxGeometry>
        </mxCell>
        <mxCell id="-eBx2iF_R8cHxZ0F60As-28" value="" style="endArrow=none;dashed=1;html=1;dashPattern=1 3;strokeWidth=2;rounded=0;exitX=1;exitY=0.5;exitDx=0;exitDy=0;entryX=0;entryY=0.5;entryDx=0;entryDy=0;" edge="1" parent="1" source="-eBx2iF_R8cHxZ0F60As-23" target="-eBx2iF_R8cHxZ0F60As-25">
          <mxGeometry width="50" height="50" relative="1" as="geometry">
            <mxPoint x="585" y="780" as="sourcePoint" />
            <mxPoint x="635" y="730" as="targetPoint" />
          </mxGeometry>
        </mxCell>
        <mxCell id="-eBx2iF_R8cHxZ0F60As-30" value="&lt;h1 style=&quot;margin-top: 0px;&quot;&gt;&lt;span style=&quot;background-color: transparent; color: light-dark(rgb(0, 0, 0), rgb(255, 255, 255));&quot;&gt;Assertion 2&lt;/span&gt;&lt;/h1&gt;&lt;h1 style=&quot;margin-top: 0px;&quot;&gt;&lt;span style=&quot;background-color: transparent; color: light-dark(rgb(0, 0, 0), rgb(255, 255, 255)); font-size: 12px; font-weight: normal;&quot;&gt;Some data source (API/reasoning/media)&lt;/span&gt;&lt;/h1&gt;" style="text;html=1;whiteSpace=wrap;overflow=hidden;rounded=0;" vertex="1" parent="1">
          <mxGeometry x="334" y="890" width="170" height="115" as="geometry" />
        </mxCell>
        <mxCell id="-eBx2iF_R8cHxZ0F60As-31" value="&lt;h1 style=&quot;margin-top: 0px;&quot;&gt;&lt;span style=&quot;background-color: transparent; color: light-dark(rgb(0, 0, 0), rgb(255, 255, 255));&quot;&gt;Assertion n&lt;/span&gt;&lt;/h1&gt;&lt;h1 style=&quot;margin-top: 0px;&quot;&gt;&lt;span style=&quot;background-color: transparent; color: light-dark(rgb(0, 0, 0), rgb(255, 255, 255)); font-size: 12px; font-weight: normal;&quot;&gt;Some data source (API/reasoning/media)&lt;/span&gt;&lt;/h1&gt;" style="text;html=1;whiteSpace=wrap;overflow=hidden;rounded=0;" vertex="1" parent="1">
          <mxGeometry x="835" y="890" width="170" height="115" as="geometry" />
        </mxCell>
        <mxCell id="-eBx2iF_R8cHxZ0F60As-47" value="" style="group" vertex="1" connectable="0" parent="1">
          <mxGeometry x="195" y="950" width="730" height="120" as="geometry" />
        </mxCell>
        <mxCell id="-eBx2iF_R8cHxZ0F60As-40" value="" style="shape=partialRectangle;whiteSpace=wrap;html=1;top=0;left=0;fillColor=none;" vertex="1" parent="-eBx2iF_R8cHxZ0F60As-47">
          <mxGeometry x="610" y="60" width="120" height="60" as="geometry" />
        </mxCell>
        <mxCell id="-eBx2iF_R8cHxZ0F60As-42" value="" style="shape=partialRectangle;whiteSpace=wrap;html=1;bottom=0;right=0;fillColor=none;direction=north;" vertex="1" parent="-eBx2iF_R8cHxZ0F60As-47">
          <mxGeometry y="60" width="230" height="60" as="geometry" />
        </mxCell>
        <mxCell id="-eBx2iF_R8cHxZ0F60As-44" value="" style="shape=partialRectangle;whiteSpace=wrap;html=1;bottom=0;right=0;fillColor=none;direction=north;" vertex="1" parent="-eBx2iF_R8cHxZ0F60As-47">
          <mxGeometry x="224" y="60" width="396" height="60" as="geometry" />
        </mxCell>
        <mxCell id="-eBx2iF_R8cHxZ0F60As-45" value="" style="endArrow=none;dashed=1;html=1;rounded=0;exitX=0;exitY=0.5;exitDx=0;exitDy=0;" edge="1" parent="-eBx2iF_R8cHxZ0F60As-47" source="-eBx2iF_R8cHxZ0F60As-44">
          <mxGeometry width="50" height="50" relative="1" as="geometry">
            <mxPoint x="390" y="-70" as="sourcePoint" />
            <mxPoint x="422" as="targetPoint" />
          </mxGeometry>
        </mxCell>
        <mxCell id="-eBx2iF_R8cHxZ0F60As-46" value="" style="endArrow=none;dashed=1;html=1;rounded=0;exitX=0;exitY=0.5;exitDx=0;exitDy=0;" edge="1" parent="-eBx2iF_R8cHxZ0F60As-47">
          <mxGeometry width="50" height="50" relative="1" as="geometry">
            <mxPoint x="550" y="120" as="sourcePoint" />
            <mxPoint x="550" as="targetPoint" />
          </mxGeometry>
        </mxCell>
        <mxCell id="-eBx2iF_R8cHxZ0F60As-48" value="" style="rounded=0;whiteSpace=wrap;html=1;" vertex="1" parent="1">
          <mxGeometry x="-145" y="890" width="190" height="120" as="geometry" />
        </mxCell>
        <mxCell id="-eBx2iF_R8cHxZ0F60As-49" value="&lt;h1 style=&quot;margin-top: 0px;&quot;&gt;OSE&lt;/h1&gt;&lt;p&gt;Optimistic Source Engine&lt;/p&gt;" style="text;html=1;whiteSpace=wrap;overflow=hidden;rounded=0;" vertex="1" parent="1">
          <mxGeometry x="-135" y="895" width="160" height="100" as="geometry" />
        </mxCell>
        <mxCell id="-eBx2iF_R8cHxZ0F60As-50" value="" style="endArrow=none;html=1;rounded=0;exitX=1;exitY=0.5;exitDx=0;exitDy=0;entryX=0;entryY=0.5;entryDx=0;entryDy=0;" edge="1" parent="1" source="-eBx2iF_R8cHxZ0F60As-48" target="-eBx2iF_R8cHxZ0F60As-19">
          <mxGeometry width="50" height="50" relative="1" as="geometry">
            <mxPoint x="585" y="900" as="sourcePoint" />
            <mxPoint x="635" y="850" as="targetPoint" />
          </mxGeometry>
        </mxCell>
        <mxCell id="-eBx2iF_R8cHxZ0F60As-51" value="" style="endArrow=none;html=1;rounded=0;exitX=0;exitY=0;exitDx=0;exitDy=0;entryX=0.5;entryY=0;entryDx=0;entryDy=0;" edge="1" parent="1" source="-eBx2iF_R8cHxZ0F60As-42" target="-eBx2iF_R8cHxZ0F60As-62">
          <mxGeometry width="50" height="50" relative="1" as="geometry">
            <mxPoint x="585" y="900" as="sourcePoint" />
            <mxPoint x="230" y="1120" as="targetPoint" />
          </mxGeometry>
        </mxCell>
        <mxCell id="-eBx2iF_R8cHxZ0F60As-53" value="" style="rounded=0;whiteSpace=wrap;html=1;" vertex="1" parent="1">
          <mxGeometry x="117.5" y="1345" width="155" height="80" as="geometry" />
        </mxCell>
        <mxCell id="-eBx2iF_R8cHxZ0F60As-55" value="Independently determine truthfulness of statement" style="text;html=1;align=center;verticalAlign=middle;whiteSpace=wrap;rounded=0;" vertex="1" parent="1">
          <mxGeometry x="125" y="1345" width="140" height="80" as="geometry" />
        </mxCell>
        <mxCell id="-eBx2iF_R8cHxZ0F60As-59" value="" style="rounded=0;whiteSpace=wrap;html=1;" vertex="1" parent="1">
          <mxGeometry x="-145" y="1130" width="190" height="120" as="geometry" />
        </mxCell>
        <mxCell id="-eBx2iF_R8cHxZ0F60As-60" value="&lt;h1 style=&quot;margin-top: 0px;&quot;&gt;DM&lt;/h1&gt;&lt;p&gt;Distribution Market or simpler (basic number submission)&lt;/p&gt;" style="text;html=1;whiteSpace=wrap;overflow=hidden;rounded=0;" vertex="1" parent="1">
          <mxGeometry x="-135" y="1135" width="160" height="100" as="geometry" />
        </mxCell>
        <mxCell id="-eBx2iF_R8cHxZ0F60As-61" value="" style="rounded=0;whiteSpace=wrap;html=1;" vertex="1" parent="1">
          <mxGeometry x="117.5" y="1145" width="155" height="80" as="geometry" />
        </mxCell>
        <mxCell id="-eBx2iF_R8cHxZ0F60As-62" value="Begin voting process" style="text;html=1;align=center;verticalAlign=middle;whiteSpace=wrap;rounded=0;" vertex="1" parent="1">
          <mxGeometry x="125" y="1145" width="140" height="80" as="geometry" />
        </mxCell>
        <mxCell id="-eBx2iF_R8cHxZ0F60As-63" value="" style="endArrow=none;html=1;rounded=0;entryX=0.5;entryY=1;entryDx=0;entryDy=0;" edge="1" parent="1" source="-eBx2iF_R8cHxZ0F60As-55" target="-eBx2iF_R8cHxZ0F60As-62">
          <mxGeometry width="50" height="50" relative="1" as="geometry">
            <mxPoint x="560" y="1210" as="sourcePoint" />
            <mxPoint x="210" y="1260" as="targetPoint" />
          </mxGeometry>
        </mxCell>
        <mxCell id="-eBx2iF_R8cHxZ0F60As-64" value="" style="rounded=0;whiteSpace=wrap;html=1;" vertex="1" parent="1">
          <mxGeometry x="344" y="1347.5" width="138.5" height="75" as="geometry" />
        </mxCell>
        <mxCell id="-eBx2iF_R8cHxZ0F60As-65" value="Reveal vote" style="text;html=1;align=center;verticalAlign=middle;whiteSpace=wrap;rounded=0;" vertex="1" parent="1">
          <mxGeometry x="351.5" y="1347.5" width="121" height="75" as="geometry" />
        </mxCell>
        <mxCell id="-eBx2iF_R8cHxZ0F60As-66" value="" style="endArrow=none;html=1;rounded=0;exitX=1;exitY=0.5;exitDx=0;exitDy=0;entryX=0;entryY=0.5;entryDx=0;entryDy=0;" edge="1" parent="1" source="-eBx2iF_R8cHxZ0F60As-53" target="-eBx2iF_R8cHxZ0F60As-64">
          <mxGeometry width="50" height="50" relative="1" as="geometry">
            <mxPoint x="320" y="1340" as="sourcePoint" />
            <mxPoint x="370" y="1290" as="targetPoint" />
          </mxGeometry>
        </mxCell>
        <mxCell id="-eBx2iF_R8cHxZ0F60As-67" value="Vote Result" style="rhombus;whiteSpace=wrap;html=1;" vertex="1" parent="1">
          <mxGeometry x="540" y="1220" width="80" height="80" as="geometry" />
        </mxCell>
        <mxCell id="-eBx2iF_R8cHxZ0F60As-68" value="2σ range around mean seen as correct (?)" style="rounded=1;whiteSpace=wrap;html=1;" vertex="1" parent="1">
          <mxGeometry x="512.5" y="1175" width="135" height="30" as="geometry" />
        </mxCell>
        <mxCell id="-eBx2iF_R8cHxZ0F60As-69" value="" style="endArrow=none;html=1;rounded=0;entryX=0.5;entryY=1;entryDx=0;entryDy=0;exitX=0.5;exitY=0;exitDx=0;exitDy=0;" edge="1" parent="1" source="-eBx2iF_R8cHxZ0F60As-67" target="-eBx2iF_R8cHxZ0F60As-68">
          <mxGeometry width="50" height="50" relative="1" as="geometry">
            <mxPoint x="320" y="1260" as="sourcePoint" />
            <mxPoint x="370" y="1210" as="targetPoint" />
          </mxGeometry>
        </mxCell>
        <mxCell id="-eBx2iF_R8cHxZ0F60As-70" value="" style="endArrow=none;html=1;rounded=0;exitX=0.5;exitY=0;exitDx=0;exitDy=0;entryX=0;entryY=0.5;entryDx=0;entryDy=0;" edge="1" parent="1" source="-eBx2iF_R8cHxZ0F60As-65" target="-eBx2iF_R8cHxZ0F60As-67">
          <mxGeometry width="50" height="50" relative="1" as="geometry">
            <mxPoint x="320" y="1260" as="sourcePoint" />
            <mxPoint x="370" y="1210" as="targetPoint" />
            <Array as="points">
              <mxPoint x="412" y="1260" />
            </Array>
          </mxGeometry>
        </mxCell>
        <mxCell id="-eBx2iF_R8cHxZ0F60As-73" value="" style="endArrow=none;html=1;rounded=0;entryX=0.5;entryY=1;entryDx=0;entryDy=0;exitX=0.5;exitY=0;exitDx=0;exitDy=0;" edge="1" parent="1" source="-eBx2iF_R8cHxZ0F60As-76" target="-eBx2iF_R8cHxZ0F60As-67">
          <mxGeometry width="50" height="50" relative="1" as="geometry">
            <mxPoint x="581.5" y="1345" as="sourcePoint" />
            <mxPoint x="370" y="1210" as="targetPoint" />
          </mxGeometry>
        </mxCell>
        <mxCell id="-eBx2iF_R8cHxZ0F60As-75" value="" style="rounded=0;whiteSpace=wrap;html=1;" vertex="1" parent="1">
          <mxGeometry x="510.75" y="1347.5" width="138.5" height="75" as="geometry" />
        </mxCell>
        <mxCell id="-eBx2iF_R8cHxZ0F60As-76" value="Stake increased or slashed based off of voting result" style="text;html=1;align=center;verticalAlign=middle;whiteSpace=wrap;rounded=0;" vertex="1" parent="1">
          <mxGeometry x="519.5" y="1347.5" width="121" height="75" as="geometry" />
        </mxCell>
      </root>
    </mxGraphModel>
  </diagram>
</mxfile>
